<svg xmlns="http://www.w3.org/2000/svg" xmlns:xlink="http://www.w3.org/1999/xlink" display="none">

     <symbol id="rss" viewBox="0 0 24 24">
           <g><circle cx="3.429" cy="20.571" r="3.429" data-original="#000000" class="active-path" data-old_color="#000000" fill="#FFFFFF"/><path d="m11.429 24h4.57c0-8.821-7.178-15.999-15.999-16v4.572c6.302.001 11.429 5.126 11.429 11.428z" data-original="#000000" class="active-path" data-old_color="#000000" fill="#FFFFFF"/><path d="m24 24c0-13.234-10.766-24-24-24v4.571c10.714 0 19.43 8.714 19.43 19.429z" data-original="#000000" class="active-path" data-old_color="#000000" fill="#FFFFFF"/></g>
    </symbol>
    <symbol id="facebook" viewBox="0 0 24 24">
           <g><path d="m15.997 3.985h2.191v-3.816c-.378-.052-1.678-.169-3.192-.169-3.159 0-5.323 1.987-5.323 5.639v3.361h-3.486v4.266h3.486v10.734h4.274v-10.733h3.345l.531-4.266h-3.877v-2.939c.001-1.233.333-2.077 2.051-2.077z" data-original="#000000" class="active-path" data-old_color="#000000" fill="#FFFFFF"/></g>
    </symbol>
    <symbol id="dribble" viewBox="0 0 97.75 97.75">
           <g>
        <path d="M46.927,38.775C42.032,30.117,36.8,22.816,35.746,21.367c-8.416,4.016-14.719,11.764-16.74,21.088
            c0.084,0,0.184,0,0.299,0C22.121,42.455,33.789,42.229,46.927,38.775z"/>
        <path d="M69.01,25.984C63.628,21.266,56.582,18.4,48.875,18.4c-2.37,0-4.676,0.273-6.893,0.789
            c1.242,1.678,6.471,8.9,11.243,17.631C63.539,32.92,68.159,27.148,69.01,25.984z"/>
        <path d="M57.713,45.988c0.208,0.488,0.41,0.975,0.609,1.459c2.365-0.291,4.725-0.404,6.967-0.404
            c6.951,0,12.768,1.088,14.141,1.365c-0.117-7.033-2.627-13.494-6.753-18.607c-1.067,1.383-6.229,7.498-16.925,11.904
            C56.439,43.115,57.098,44.547,57.713,45.988z"/>
        <path d="M50.969,49.018c0.336-0.108,0.676-0.207,1.016-0.307c-0.728-1.633-1.512-3.268-2.336-4.879
            c-13.565,4.027-26.731,4.342-30.522,4.342c-0.35,0-0.617-0.002-0.801-0.006c-0.006,0.252-0.013,0.504-0.013,0.754
            c0.001,7.752,2.91,14.834,7.693,20.223C27.297,67.012,35.695,53.951,50.969,49.018z"/>
        <path d="M48.875,0C21.882,0,0,21.883,0,48.875S21.882,97.75,48.875,97.75S97.75,75.867,97.75,48.875S75.868,0,48.875,0z
             M48.875,85.004c-19.948,0-36.176-16.207-36.177-36.129C12.7,28.953,28.927,12.748,48.875,12.746
            c19.948,0.002,36.175,16.207,36.176,36.129C85.05,68.797,68.823,85.004,48.875,85.004z"/>
        <path d="M60.327,52.631c3.801,10.484,5.448,19.082,5.856,21.432c6.692-4.608,11.461-11.811,12.84-20.141
            c-1.16-0.354-6.157-1.752-12.543-1.752C64.535,52.17,62.46,52.303,60.327,52.631z"/>
        <path d="M54.184,54.143c-16.742,5.826-23.078,17.236-23.95,18.949c5.164,3.979,11.628,6.352,18.642,6.352
            c4.183,0,8.172-0.844,11.806-2.37c-0.49-2.843-2.269-12.013-6.464-22.943C54.206,54.135,54.195,54.139,54.184,54.143z"/>
    </g>
    </symbol>
    <symbol id="twitter" viewBox="0 0 512 512" >
        <g>
        <path d="M512,97.248c-19.04,8.352-39.328,13.888-60.48,16.576c21.76-12.992,38.368-33.408,46.176-58.016    c-20.288,12.096-42.688,20.64-66.56,25.408C411.872,60.704,384.416,48,354.464,48c-58.112,0-104.896,47.168-104.896,104.992    c0,8.32,0.704,16.32,2.432,23.936c-87.264-4.256-164.48-46.08-216.352-109.792c-9.056,15.712-14.368,33.696-14.368,53.056    c0,36.352,18.72,68.576,46.624,87.232c-16.864-0.32-33.408-5.216-47.424-12.928c0,0.32,0,0.736,0,1.152    c0,51.008,36.384,93.376,84.096,103.136c-8.544,2.336-17.856,3.456-27.52,3.456c-6.72,0-13.504-0.384-19.872-1.792    c13.6,41.568,52.192,72.128,98.08,73.12c-35.712,27.936-81.056,44.768-130.144,44.768c-8.608,0-16.864-0.384-25.12-1.44    C46.496,446.88,101.6,464,161.024,464c193.152,0,298.752-160,298.752-298.688c0-4.64-0.16-9.12-0.384-13.568    C480.224,136.96,497.728,118.496,512,97.248z" data-original="#000000" class="active-path" data-old_color="#000000" fill="#FFFFFF"/>
    </g>
    </symbol>

</svg>

