<svg version="1.1" xmlns="http://www.w3.org/2000/svg" xmlns:xlink="http://www.w3.org/1999/xlink" display="none">

     <symbol id="rss" viewBox="0 0 24 24">
           <g><circle cx="3.429" cy="20.571" r="3.429" data-original="#000000" class="active-path" data-old_color="#000000" fill="#FFFFFF"/><path d="m11.429 24h4.57c0-8.821-7.178-15.999-15.999-16v4.572c6.302.001 11.429 5.126 11.429 11.428z" data-original="#000000" class="active-path" data-old_color="#000000" fill="#FFFFFF"/><path d="m24 24c0-13.234-10.766-24-24-24v4.571c10.714 0 19.43 8.714 19.43 19.429z" data-original="#000000" class="active-path" data-old_color="#000000" fill="#FFFFFF"/></g>
    </symbol>
    <symbol id="facebook" viewBox="0 0 24 24">
           <g><path d="m15.997 3.985h2.191v-3.816c-.378-.052-1.678-.169-3.192-.169-3.159 0-5.323 1.987-5.323 5.639v3.361h-3.486v4.266h3.486v10.734h4.274v-10.733h3.345l.531-4.266h-3.877v-2.939c.001-1.233.333-2.077 2.051-2.077z" data-original="#000000" class="active-path" data-old_color="#000000" fill="#FFFFFF"/></g>
    </symbol>
    <symbol id="dribble" viewBox="0 0 97.75 97.75">
           <g>
        <path d="M46.927,38.775C42.032,30.117,36.8,22.816,35.746,21.367c-8.416,4.016-14.719,11.764-16.74,21.088
            c0.084,0,0.184,0,0.299,0C22.121,42.455,33.789,42.229,46.927,38.775z"/>
        <path d="M69.01,25.984C63.628,21.266,56.582,18.4,48.875,18.4c-2.37,0-4.676,0.273-6.893,0.789
            c1.242,1.678,6.471,8.9,11.243,17.631C63.539,32.92,68.159,27.148,69.01,25.984z"/>
        <path d="M57.713,45.988c0.208,0.488,0.41,0.975,0.609,1.459c2.365-0.291,4.725-0.404,6.967-0.404
            c6.951,0,12.768,1.088,14.141,1.365c-0.117-7.033-2.627-13.494-6.753-18.607c-1.067,1.383-6.229,7.498-16.925,11.904
            C56.439,43.115,57.098,44.547,57.713,45.988z"/>
        <path d="M50.969,49.018c0.336-0.108,0.676-0.207,1.016-0.307c-0.728-1.633-1.512-3.268-2.336-4.879
            c-13.565,4.027-26.731,4.342-30.522,4.342c-0.35,0-0.617-0.002-0.801-0.006c-0.006,0.252-0.013,0.504-0.013,0.754
            c0.001,7.752,2.91,14.834,7.693,20.223C27.297,67.012,35.695,53.951,50.969,49.018z"/>
        <path d="M48.875,0C21.882,0,0,21.883,0,48.875S21.882,97.75,48.875,97.75S97.75,75.867,97.75,48.875S75.868,0,48.875,0z
             M48.875,85.004c-19.948,0-36.176-16.207-36.177-36.129C12.7,28.953,28.927,12.748,48.875,12.746
            c19.948,0.002,36.175,16.207,36.176,36.129C85.05,68.797,68.823,85.004,48.875,85.004z"/>
        <path d="M60.327,52.631c3.801,10.484,5.448,19.082,5.856,21.432c6.692-4.608,11.461-11.811,12.84-20.141
            c-1.16-0.354-6.157-1.752-12.543-1.752C64.535,52.17,62.46,52.303,60.327,52.631z"/>
        <path d="M54.184,54.143c-16.742,5.826-23.078,17.236-23.95,18.949c5.164,3.979,11.628,6.352,18.642,6.352
            c4.183,0,8.172-0.844,11.806-2.37c-0.49-2.843-2.269-12.013-6.464-22.943C54.206,54.135,54.195,54.139,54.184,54.143z"/>
    </g>
    </symbol>
    <symbol id="twitter" viewBox="0 0 512 512" >
        <g>
        <path d="M512,97.248c-19.04,8.352-39.328,13.888-60.48,16.576c21.76-12.992,38.368-33.408,46.176-58.016    c-20.288,12.096-42.688,20.64-66.56,25.408C411.872,60.704,384.416,48,354.464,48c-58.112,0-104.896,47.168-104.896,104.992    c0,8.32,0.704,16.32,2.432,23.936c-87.264-4.256-164.48-46.08-216.352-109.792c-9.056,15.712-14.368,33.696-14.368,53.056    c0,36.352,18.72,68.576,46.624,87.232c-16.864-0.32-33.408-5.216-47.424-12.928c0,0.32,0,0.736,0,1.152    c0,51.008,36.384,93.376,84.096,103.136c-8.544,2.336-17.856,3.456-27.52,3.456c-6.72,0-13.504-0.384-19.872-1.792    c13.6,41.568,52.192,72.128,98.08,73.12c-35.712,27.936-81.056,44.768-130.144,44.768c-8.608,0-16.864-0.384-25.12-1.44    C46.496,446.88,101.6,464,161.024,464c193.152,0,298.752-160,298.752-298.688c0-4.64-0.16-9.12-0.384-13.568    C480.224,136.96,497.728,118.496,512,97.248z" data-original="#000000" class="active-path" data-old_color="#000000" fill="#FFFFFF"/>
        </g>
    </symbol>

    <symbol id="settings" viewBox="0 0 512 512" >
        <g>
            <path d="m272.066 512h-32.133c-25.989 0-47.134-21.144-47.134-47.133v-10.871c-11.049-3.53-21.784-7.986-32.097-13.323l-7.704 7.704c-18.659 18.682-48.548 18.134-66.665-.007l-22.711-22.71c-18.149-18.129-18.671-48.008.006-66.665l7.698-7.698c-5.337-10.313-9.792-21.046-13.323-32.097h-10.87c-25.988 0-47.133-21.144-47.133-47.133v-32.134c0-25.989 21.145-47.133 47.134-47.133h10.87c3.531-11.05 7.986-21.784 13.323-32.097l-7.704-7.703c-18.666-18.646-18.151-48.528.006-66.665l22.713-22.712c18.159-18.184 48.041-18.638 66.664.006l7.697 7.697c10.313-5.336 21.048-9.792 32.097-13.323v-10.87c0-25.989 21.144-47.133 47.134-47.133h32.133c25.989 0 47.133 21.144 47.133 47.133v10.871c11.049 3.53 21.784 7.986 32.097 13.323l7.704-7.704c18.659-18.682 48.548-18.134 66.665.007l22.711 22.71c18.149 18.129 18.671 48.008-.006 66.665l-7.698 7.698c5.337 10.313 9.792 21.046 13.323 32.097h10.87c25.989 0 47.134 21.144 47.134 47.133v32.134c0 25.989-21.145 47.133-47.134 47.133h-10.87c-3.531 11.05-7.986 21.784-13.323 32.097l7.704 7.704c18.666 18.646 18.151 48.528-.006 66.665l-22.713 22.712c-18.159 18.184-48.041 18.638-66.664-.006l-7.697-7.697c-10.313 5.336-21.048 9.792-32.097 13.323v10.871c0 25.987-21.144 47.131-47.134 47.131zm-106.349-102.83c14.327 8.473 29.747 14.874 45.831 19.025 6.624 1.709 11.252 7.683 11.252 14.524v22.148c0 9.447 7.687 17.133 17.134 17.133h32.133c9.447 0 17.134-7.686 17.134-17.133v-22.148c0-6.841 4.628-12.815 11.252-14.524 16.084-4.151 31.504-10.552 45.831-19.025 5.895-3.486 13.4-2.538 18.243 2.305l15.688 15.689c6.764 6.772 17.626 6.615 24.224.007l22.727-22.726c6.582-6.574 6.802-17.438.006-24.225l-15.695-15.695c-4.842-4.842-5.79-12.348-2.305-18.242 8.473-14.326 14.873-29.746 19.024-45.831 1.71-6.624 7.684-11.251 14.524-11.251h22.147c9.447 0 17.134-7.686 17.134-17.133v-32.134c0-9.447-7.687-17.133-17.134-17.133h-22.147c-6.841 0-12.814-4.628-14.524-11.251-4.151-16.085-10.552-31.505-19.024-45.831-3.485-5.894-2.537-13.4 2.305-18.242l15.689-15.689c6.782-6.774 6.605-17.634.006-24.225l-22.725-22.725c-6.587-6.596-17.451-6.789-24.225-.006l-15.694 15.695c-4.842 4.843-12.35 5.791-18.243 2.305-14.327-8.473-29.747-14.874-45.831-19.025-6.624-1.709-11.252-7.683-11.252-14.524v-22.15c0-9.447-7.687-17.133-17.134-17.133h-32.133c-9.447 0-17.134 7.686-17.134 17.133v22.148c0 6.841-4.628 12.815-11.252 14.524-16.084 4.151-31.504 10.552-45.831 19.025-5.896 3.485-13.401 2.537-18.243-2.305l-15.688-15.689c-6.764-6.772-17.627-6.615-24.224-.007l-22.727 22.726c-6.582 6.574-6.802 17.437-.006 24.225l15.695 15.695c4.842 4.842 5.79 12.348 2.305 18.242-8.473 14.326-14.873 29.746-19.024 45.831-1.71 6.624-7.684 11.251-14.524 11.251h-22.148c-9.447.001-17.134 7.687-17.134 17.134v32.134c0 9.447 7.687 17.133 17.134 17.133h22.147c6.841 0 12.814 4.628 14.524 11.251 4.151 16.085 10.552 31.505 19.024 45.831 3.485 5.894 2.537 13.4-2.305 18.242l-15.689 15.689c-6.782 6.774-6.605 17.634-.006 24.225l22.725 22.725c6.587 6.596 17.451 6.789 24.225.006l15.694-15.695c3.568-3.567 10.991-6.594 18.244-2.304z"/><path d="m256 367.4c-61.427 0-111.4-49.974-111.4-111.4s49.973-111.4 111.4-111.4 111.4 49.974 111.4 111.4-49.973 111.4-111.4 111.4zm0-192.8c-44.885 0-81.4 36.516-81.4 81.4s36.516 81.4 81.4 81.4 81.4-36.516 81.4-81.4-36.515-81.4-81.4-81.4z"/>
        </g>
    </symbol>
    <symbol id="pen" viewBox="0 0 511.999 511.999">
        <g>
       <path d="M400.574,362.613l54.128-168.968l52.905-52.906c5.858-5.858,5.858-15.355,0-21.213L392.474,4.394
            c-5.857-5.858-15.355-5.858-21.213,0l-52.906,52.905l-168.968,54.128c-4.372,1.401-7.862,4.727-9.472,9.027L0.955,491.741
            c-3.617,9.671,3.468,20.258,14.051,20.258c0.004,0,0.007,0,0.011,0h448.808c8.284,0,15-6.716,15-15c0-8.284-6.716-15-15-15H97.873
            l293.672-109.912C395.847,370.476,399.173,366.986,400.574,362.613z M381.867,36.214l93.92,93.919l-34.263,34.263l-93.92-93.92
            L381.867,36.214z M74.5,458.714l136.36-136.359c25.158,15.486,58.308,12.138,79.8-9.354c25.33-25.33,25.331-66.327,0-91.657
            c-25.271-25.27-66.388-25.271-91.657,0c-21.819,21.82-24.697,55.023-9.369,79.815L53.287,437.502l112.177-299.723l156.791-50.227
            c15.645,15.646,92.413,92.414,102.193,102.194l-50.227,156.791L74.5,458.714z M220.214,242.556
            c13.573-13.572,35.658-13.574,49.232,0c13.604,13.603,13.606,35.625,0,49.231c-13.572,13.574-35.658,13.573-49.232,0
            C206.61,278.183,206.607,256.163,220.214,242.556z"/>
        </g>
    </symbol>
    <symbol id="user" viewBox="-42 0 512 512.001">
        <g>
       <path d="m210.351562 246.632812c33.882813 0 63.21875-12.152343 87.195313-36.128906 23.96875-23.972656 36.125-53.304687 36.125-87.191406 0-33.875-12.152344-63.210938-36.128906-87.191406-23.976563-23.96875-53.3125-36.121094-87.191407-36.121094-33.886718 0-63.21875 12.152344-87.191406 36.125s-36.128906 53.308594-36.128906 87.1875c0 33.886719 12.15625 63.222656 36.128906 87.195312 23.980469 23.96875 53.316406 36.125 87.191406 36.125zm-65.972656-189.292968c18.394532-18.394532 39.972656-27.335938 65.972656-27.335938 25.996094 0 47.578126 8.941406 65.976563 27.335938 18.394531 18.398437 27.339844 39.980468 27.339844 65.972656 0 26-8.945313 47.578125-27.339844 65.976562-18.398437 18.398438-39.980469 27.339844-65.976563 27.339844-25.992187 0-47.570312-8.945312-65.972656-27.339844-18.398437-18.394531-27.34375-39.976562-27.34375-65.976562 0-25.992188 8.945313-47.574219 27.34375-65.972656zm0 0"/><path d="m426.128906 393.703125c-.691406-9.976563-2.089844-20.859375-4.148437-32.351563-2.078125-11.578124-4.753907-22.523437-7.957031-32.527343-3.3125-10.339844-7.808594-20.550781-13.375-30.335938-5.769532-10.15625-12.550782-19-20.160157-26.277343-7.957031-7.613282-17.699219-13.734376-28.964843-18.199219-11.226563-4.441407-23.667969-6.691407-36.976563-6.691407-5.226563 0-10.28125 2.144532-20.042969 8.5-6.007812 3.917969-13.035156 8.449219-20.878906 13.460938-6.707031 4.273438-15.792969 8.277344-27.015625 11.902344-10.949219 3.542968-22.066406 5.339844-33.042969 5.339844-10.96875 0-22.085937-1.796876-33.042968-5.339844-11.210938-3.621094-20.300782-7.625-26.996094-11.898438-7.769532-4.964844-14.800782-9.496094-20.898438-13.46875-9.753906-6.355468-14.808594-8.5-20.035156-8.5-13.3125 0-25.75 2.253906-36.972656 6.699219-11.257813 4.457031-21.003906 10.578125-28.96875 18.199219-7.609375 7.28125-14.390625 16.121094-20.15625 26.273437-5.558594 9.785157-10.058594 19.992188-13.371094 30.339844-3.199219 10.003906-5.875 20.945313-7.953125 32.523437-2.0625 11.476563-3.457031 22.363282-4.148437 32.363282-.679688 9.777344-1.023438 19.953125-1.023438 30.234375 0 26.726562 8.496094 48.363281 25.25 64.320312 16.546875 15.746094 38.4375 23.730469 65.066406 23.730469h246.53125c26.621094 0 48.511719-7.984375 65.0625-23.730469 16.757813-15.945312 25.253906-37.589843 25.253906-64.324219-.003906-10.316406-.351562-20.492187-1.035156-30.242187zm-44.90625 72.828125c-10.933594 10.40625-25.449218 15.464844-44.378906 15.464844h-246.527344c-18.933594 0-33.449218-5.058594-44.378906-15.460938-10.722656-10.207031-15.933594-24.140625-15.933594-42.585937 0-9.59375.316406-19.066407.949219-28.160157.617187-8.921874 1.878906-18.722656 3.75-29.136718 1.847656-10.285156 4.199219-19.9375 6.996094-28.675782 2.683593-8.378906 6.34375-16.675781 10.882812-24.667968 4.332031-7.617188 9.316407-14.152344 14.816407-19.417969 5.144531-4.925781 11.628906-8.957031 19.269531-11.980469 7.066406-2.796875 15.007812-4.328125 23.628906-4.558594 1.050781.558594 2.921875 1.625 5.953125 3.601563 6.167969 4.019531 13.277344 8.605469 21.136719 13.625 8.859375 5.648437 20.273437 10.75 33.910156 15.152344 13.941406 4.507812 28.160156 6.796875 42.273437 6.796875 14.113282 0 28.335938-2.289063 42.269532-6.792969 13.648437-4.410156 25.058594-9.507813 33.929687-15.164063 8.042969-5.140624 14.953125-9.59375 21.121094-13.617187 3.03125-1.972656 4.902344-3.042969 5.953125-3.601563 8.625.230469 16.566406 1.761719 23.636719 4.558594 7.636719 3.023438 14.121093 7.058594 19.265625 11.980469 5.5 5.261719 10.484375 11.796875 14.816406 19.421875 4.542969 7.988281 8.207031 16.289062 10.886719 24.660156 2.800781 8.75 5.15625 18.398438 7 28.675782 1.867187 10.433593 3.132812 20.238281 3.75 29.144531v.007812c.636719 9.058594.957031 18.527344.960937 28.148438-.003906 18.449219-5.214844 32.378906-15.9375 42.582031zm0 0"/>
        </g>
    </symbol>

</svg>

